<svg width="270" height="154" viewBox="0 0 270 154" fill="none" xmlns="http://www.w3.org/2000/svg">
<path d="M265.239 136.001C267.872 136.001 270 133.881 270 131.266C270 128.651 267.872 126.531 265.239 126.531C262.61 126.531 260.479 128.651 260.479 131.266C260.479 133.881 262.61 136.001 265.239 136.001Z" fill="#0B3B2D"/>
<path d="M14.6188 154.001C12.5012 154.001 10.5495 153.671 8.76362 153.012C7.00324 152.327 5.45964 151.363 4.13307 150.12C2.83189 148.877 1.81154 147.418 1.07151 145.743C0.357255 144.069 0 142.23 0 140.226C0 138.222 0.357255 136.382 1.07151 134.708C1.81154 133.033 2.84478 131.575 4.17135 130.332C5.49791 129.089 7.05441 128.137 8.84018 127.478C10.6261 126.793 12.5906 126.45 14.7336 126.45C17.1063 126.45 19.2366 126.844 21.1245 127.63C23.038 128.416 24.6453 129.558 25.9465 131.055L21.9665 134.708C20.997 133.693 19.9382 132.945 18.7901 132.463C17.6421 131.955 16.3921 131.702 15.0398 131.702C13.7387 131.702 12.5523 131.905 11.4808 132.311C10.4093 132.716 9.47788 133.3 8.68707 134.061C7.92177 134.822 7.32222 135.723 6.8884 136.763C6.48037 137.803 6.27609 138.957 6.27609 140.226C6.27609 141.469 6.48037 142.61 6.8884 143.65C7.32222 144.691 7.92177 145.604 8.68707 146.39C9.47788 147.151 10.3964 147.735 11.4425 148.141C12.514 148.547 13.6875 148.75 14.9633 148.75C16.1879 148.75 17.3743 148.559 18.5223 148.179C19.6958 147.773 20.8312 147.101 21.9282 146.162L25.449 150.614C23.9948 151.705 22.2981 152.542 20.3593 153.126C18.4458 153.709 16.5323 154.001 14.6188 154.001ZM19.7852 149.815V139.807H25.449V150.614L19.7852 149.815ZM29.2562 153.544V125.309H35.2261V153.544H29.2562ZM49.033 153.849C46.8388 153.849 44.8871 153.392 43.1778 152.479C41.494 151.566 40.1545 150.323 39.1595 148.75C38.19 147.151 37.7053 145.338 37.7053 143.308C37.7053 141.253 38.19 139.439 39.1595 137.866C40.1545 136.268 41.494 135.025 43.1778 134.137C44.8871 133.224 46.8388 132.767 49.033 132.767C51.2015 132.767 53.1406 133.224 54.8501 134.137C56.5596 135.025 57.898 136.255 58.868 137.828C59.8379 139.401 60.3223 141.228 60.3223 143.308C60.3223 145.338 59.8379 147.151 58.868 148.75C57.898 150.323 56.5596 151.566 54.8501 152.479C53.1406 153.392 51.2015 153.849 49.033 153.849ZM49.033 148.978C50.028 148.978 50.9211 148.75 51.7119 148.293C52.5027 147.836 53.1277 147.189 53.5871 146.352C54.0463 145.49 54.2758 144.475 54.2758 143.308C54.2758 142.116 54.0463 141.101 53.5871 140.264C53.1277 139.427 52.5027 138.78 51.7119 138.323C50.9211 137.866 50.028 137.638 49.033 137.638C48.038 137.638 47.145 137.866 46.3542 138.323C45.5634 138.78 44.9254 139.427 44.4407 140.264C43.9815 141.101 43.7518 142.116 43.7518 143.308C43.7518 144.475 43.9815 145.49 44.4407 146.352C44.9254 147.189 45.5634 147.836 46.3542 148.293C47.145 148.75 48.038 148.978 49.033 148.978ZM74.9524 153.849C73.14 153.849 71.5842 153.468 70.2835 152.707C68.9816 151.946 67.9869 150.792 67.2981 149.244C66.6094 147.671 66.2644 145.693 66.2644 143.308C66.2644 140.898 66.6211 138.919 67.3359 137.372C68.0754 135.824 69.0962 134.67 70.3981 133.909C71.6988 133.148 73.2169 132.767 74.9524 132.767C76.891 132.767 78.6252 133.198 80.1563 134.061C81.7121 134.923 82.9373 136.141 83.8304 137.714C84.7483 139.287 85.2079 141.152 85.2079 143.308C85.2079 145.439 84.7483 147.291 83.8304 148.864C82.9373 150.437 81.7121 151.667 80.1563 152.555C78.6252 153.417 76.891 153.849 74.9524 153.849ZM62.7817 153.544V125.309H68.7524V137.219L68.3697 143.27L68.4842 149.358V153.544H62.7817ZM73.9186 148.978C74.9133 148.978 75.7934 148.75 76.559 148.293C77.3506 147.836 77.9755 147.189 78.4338 146.352C78.9194 145.49 79.1616 144.475 79.1616 143.308C79.1616 142.116 78.9194 141.101 78.4338 140.264C77.9755 139.427 77.3506 138.78 76.559 138.323C75.7934 137.866 74.9133 137.638 73.9186 137.638C72.9239 137.638 72.0308 137.866 71.2392 138.323C70.4489 138.78 69.8239 139.427 69.3644 140.264C68.9048 141.101 68.6756 142.116 68.6756 143.308C68.6756 144.475 68.9048 145.49 69.3644 146.352C69.8239 147.189 70.4489 147.836 71.2392 148.293C72.0308 148.75 72.9239 148.978 73.9186 148.978ZM99.9656 153.544V149.549L99.5828 148.674V141.519C99.5828 140.251 99.1883 139.261 98.3967 138.551C97.6312 137.841 96.4451 137.486 94.8385 137.486C93.7409 137.486 92.6564 137.663 91.5849 138.018C90.5394 138.348 89.6463 138.805 88.9068 139.388L86.7637 135.241C87.886 134.454 89.2375 133.845 90.8193 133.414C92.4012 132.983 94.0091 132.767 95.6418 132.767C98.7795 132.767 101.217 133.503 102.951 134.974C104.687 136.446 105.554 138.742 105.554 141.862V153.544H99.9656ZM93.6901 153.849C92.0822 153.849 90.7048 153.582 89.5564 153.05C88.4094 152.492 87.5293 151.743 86.9161 150.805C86.3041 149.866 85.9982 148.813 85.9982 147.646C85.9982 146.428 86.2911 145.363 86.8783 144.45C87.4902 143.536 88.4472 142.826 89.7478 142.319C91.0498 141.786 92.7462 141.519 94.8385 141.519H100.311V144.982H95.4882C94.0847 144.982 93.116 145.211 92.5796 145.667C92.0692 146.124 91.8153 146.695 91.8153 147.38C91.8153 148.141 92.1083 148.75 92.6955 149.206C93.3074 149.638 94.1367 149.853 95.1822 149.853C96.1769 149.853 97.0701 149.625 97.8616 149.168C98.6519 148.686 99.2261 147.989 99.5828 147.075L100.502 149.815C100.068 151.134 99.2769 152.136 98.1298 152.821C96.9815 153.506 95.5012 153.849 93.6901 153.849ZM109.426 153.544V125.309H115.395V153.544H109.426ZM119.827 153.544V126.907H124.954L140.76 146.086H138.272V126.907H144.395V153.544H139.306L123.462 134.365H125.95V153.544H119.827ZM158.579 153.849C156.383 153.849 154.432 153.392 152.724 152.479C151.04 151.566 149.7 150.323 148.706 148.75C147.734 147.151 147.251 145.338 147.251 143.308C147.251 141.253 147.734 139.439 148.706 137.866C149.7 136.268 151.04 135.025 152.724 134.137C154.432 133.224 156.383 132.767 158.579 132.767C160.746 132.767 162.687 133.224 164.396 134.137C166.104 135.025 167.444 136.255 168.414 137.828C169.383 139.401 169.868 141.228 169.868 143.308C169.868 145.338 169.383 147.151 168.414 148.75C167.444 150.323 166.104 151.566 164.396 152.479C162.687 153.392 160.746 153.849 158.579 153.849ZM158.579 148.978C159.573 148.978 160.468 148.75 161.258 148.293C162.047 147.836 162.673 147.189 163.133 146.352C163.592 145.49 163.822 144.475 163.822 143.308C163.822 142.116 163.592 141.101 163.133 140.264C162.673 139.427 162.047 138.78 161.258 138.323C160.468 137.866 159.573 137.638 158.579 137.638C157.584 137.638 156.689 137.866 155.899 138.323C155.11 138.78 154.471 139.427 153.987 140.264C153.527 141.101 153.298 142.116 153.298 143.308C153.298 144.475 153.527 145.49 153.987 146.352C154.471 147.189 155.11 147.836 155.899 148.293C156.689 148.75 157.584 148.978 158.579 148.978ZM198.696 132.767C200.328 132.767 201.768 133.097 203.021 133.757C204.294 134.391 205.289 135.38 206.005 136.725C206.743 138.044 207.116 139.744 207.116 141.824V153.544H201.145V142.737C201.145 141.088 200.801 139.87 200.112 139.084C199.424 138.298 198.452 137.904 197.204 137.904C196.334 137.904 195.558 138.107 194.869 138.513C194.181 138.894 193.644 139.477 193.261 140.264C192.879 141.05 192.687 142.052 192.687 143.27V153.544H186.718V142.737C186.718 141.088 186.373 139.87 185.684 139.084C185.02 138.298 184.063 137.904 182.814 137.904C181.945 137.904 181.169 138.107 180.48 138.513C179.791 138.894 179.255 139.477 178.872 140.264C178.489 141.05 178.298 142.052 178.298 143.27V153.544H172.329V133.072H178.031V138.665L176.96 137.029C177.673 135.634 178.681 134.581 179.983 133.871C181.308 133.135 182.814 132.767 184.498 132.767C186.384 132.767 188.03 133.249 189.435 134.213C190.862 135.152 191.807 136.598 192.267 138.551L190.161 137.98C190.85 136.382 191.948 135.114 193.453 134.175C194.984 133.236 196.731 132.767 198.696 132.767ZM223.564 153.544V149.549L223.182 148.674V141.519C223.182 140.251 222.786 139.261 221.996 138.551C221.23 137.841 220.044 137.486 218.436 137.486C217.337 137.486 216.255 137.663 215.184 138.018C214.137 138.348 213.243 138.805 212.504 139.388L210.361 135.241C211.482 134.454 212.835 133.845 214.418 133.414C215.998 132.983 217.605 132.767 219.239 132.767C222.378 132.767 224.813 133.503 226.549 134.974C228.283 136.446 229.151 138.742 229.151 141.862V153.544H223.564ZM217.288 153.849C215.681 153.849 214.304 153.582 213.155 153.05C212.007 152.492 211.127 151.743 210.515 150.805C209.902 149.866 209.596 148.813 209.596 147.646C209.596 146.428 209.889 145.363 210.476 144.45C211.088 143.536 212.045 142.826 213.347 142.319C214.647 141.786 216.343 141.519 218.436 141.519H223.908V144.982H219.087C217.682 144.982 216.714 145.211 216.178 145.667C215.667 146.124 215.413 146.695 215.413 147.38C215.413 148.141 215.706 148.75 216.293 149.206C216.905 149.638 217.734 149.853 218.781 149.853C219.776 149.853 220.666 149.625 221.459 149.168C222.25 148.686 222.824 147.989 223.182 147.075L224.1 149.815C223.666 151.134 222.876 152.136 221.727 152.821C220.579 153.506 219.097 153.849 217.288 153.849ZM242.012 153.849C240.073 153.849 238.327 153.417 236.769 152.555C235.214 151.667 233.976 150.437 233.057 148.864C232.165 147.291 231.717 145.439 231.717 143.308C231.717 141.152 232.165 139.287 233.057 137.714C233.976 136.141 235.214 134.923 236.769 134.061C238.327 133.198 240.073 132.767 242.012 132.767C243.747 132.767 245.266 133.148 246.566 133.909C247.867 134.67 248.876 135.824 249.589 137.372C250.305 138.919 250.661 140.898 250.661 143.308C250.661 145.693 250.317 147.671 249.627 149.244C248.938 150.792 247.944 151.946 246.643 152.707C245.368 153.468 243.824 153.849 242.012 153.849ZM243.046 148.978C244.016 148.978 244.896 148.75 245.686 148.293C246.479 147.836 247.103 147.189 247.561 146.352C248.048 145.49 248.289 144.475 248.289 143.308C248.289 142.116 248.048 141.101 247.561 140.264C247.103 139.427 246.479 138.78 245.686 138.323C244.896 137.866 244.016 137.638 243.046 137.638C242.051 137.638 241.159 137.866 240.366 138.323C239.576 138.78 238.939 139.427 238.454 140.264C237.994 141.101 237.765 142.116 237.765 143.308C237.765 144.475 237.994 145.49 238.454 146.352C238.939 147.189 239.576 147.836 240.366 148.293C241.159 148.75 242.051 148.978 243.046 148.978ZM248.441 153.544V149.358L248.556 143.27L248.174 137.219V125.309H254.144V153.544H248.441Z" fill="#0B3B2D"/>
<path fill-rule="evenodd" clip-rule="evenodd" d="M135.231 0C163.138 0 185.76 22.5461 185.76 50.358C185.76 78.17 163.138 100.716 135.231 100.716C107.325 100.716 84.7021 78.17 84.7021 50.358C84.7021 22.5461 107.325 0 135.231 0ZM133.405 3.76826C127.641 4.57676 122.152 9.19305 117.891 16.9138C116.655 19.1533 115.54 21.6274 114.568 24.299C120.361 22.8478 126.726 21.9924 133.405 21.8601V3.76826ZM110.297 25.5085C111.506 21.7284 112.984 18.2508 114.69 15.1594C116.802 11.332 119.309 8.02696 122.133 5.48844C106.775 9.93369 94.6696 21.9984 90.2092 37.3046C92.7563 34.4897 96.0727 31.9915 99.9131 29.8865C103.015 28.1862 106.504 26.7126 110.297 25.5085ZM109.083 29.7643C107.628 35.5384 106.769 41.8813 106.637 48.5378H88.4832C89.2945 42.7927 93.9264 37.3225 101.673 33.0763C103.921 31.8444 106.403 30.733 109.083 29.7643ZM110.29 48.5378C110.441 41.2734 111.49 34.4534 113.226 28.4277C119.273 26.6974 126.116 25.6515 133.405 25.5011V33.3643C130.686 40.3019 125.14 45.8289 118.178 48.5378H110.29ZM106.637 52.1783H88.4832C89.2945 57.9234 93.9264 63.3934 101.673 67.6398C103.921 68.8717 106.403 69.9829 109.083 70.9518C107.628 65.1776 106.769 58.8347 106.637 52.1783ZM113.226 72.2886C111.49 66.2627 110.441 59.4426 110.29 52.1783H118.178C125.14 54.8871 130.686 60.4142 133.405 67.352V75.2152C126.116 75.0648 119.273 74.0185 113.226 72.2886ZM110.297 75.2078C106.504 74.0035 103.015 72.5299 99.9131 70.8298C96.0727 68.7248 92.7563 66.2262 90.2092 63.4115C94.6696 78.7177 106.775 90.7823 122.133 95.2275C119.309 92.689 116.802 89.3839 114.69 85.5563C112.984 82.4652 111.506 78.9878 110.297 75.2078ZM133.405 96.9477C127.641 96.1393 122.152 91.5229 117.891 83.8023C116.655 81.563 115.54 79.0885 114.568 76.4171C120.361 77.8683 126.726 78.7235 133.405 78.856V96.9477ZM148.329 95.2275C151.153 92.689 153.661 89.3839 155.773 85.5563C157.479 82.4652 158.957 78.9878 160.166 75.2078C163.958 74.0035 167.448 72.5299 170.55 70.8298C174.39 68.7248 177.707 66.2262 180.253 63.4115C175.793 78.7177 163.687 90.7823 148.329 95.2275ZM155.895 76.4171C154.923 79.0885 153.808 81.563 152.572 83.8023C148.311 91.5229 142.822 96.1393 137.058 96.9477V78.856C143.737 78.7235 150.101 77.8683 155.895 76.4171ZM161.379 70.9518C164.059 69.9829 166.542 68.8717 168.789 67.6398C176.536 63.3934 181.168 57.9234 181.979 52.1783H163.826C163.693 58.8347 162.835 65.1776 161.379 70.9518ZM160.173 52.1783C160.022 59.4426 158.972 66.2627 157.236 72.2886C151.19 74.0185 144.347 75.0648 137.058 75.2152V67.3578C139.776 60.4173 145.323 54.888 152.287 52.1783H160.173ZM163.826 48.5378H181.979C181.168 42.7927 176.536 37.3225 168.789 33.0763C166.542 31.8444 164.059 30.733 161.379 29.7643C162.835 35.5384 163.693 41.8813 163.826 48.5378ZM157.236 28.4277C158.972 34.4534 160.022 41.2734 160.173 48.5378H152.287C145.323 45.8281 139.776 40.2987 137.058 33.3585V25.5011C144.347 25.6515 151.19 26.6974 157.236 28.4277ZM160.166 25.5085C163.958 26.7126 167.448 28.1862 170.55 29.8865C174.39 31.9915 177.707 34.4897 180.253 37.3046C175.793 21.9984 163.687 9.93369 148.329 5.48844C151.153 8.02696 153.661 11.332 155.773 15.1594C157.479 18.2508 158.957 21.7284 160.166 25.5085ZM137.058 3.76826C142.822 4.57676 148.311 9.19305 152.572 16.9138C153.808 19.1533 154.923 21.6274 155.895 24.299C150.101 22.8478 143.737 21.9924 137.058 21.8601V3.76826Z" fill="#0B3B2D"/>
</svg>
